<?xml version="1.0" encoding="utf-8"?>
<!-- Generator: Adobe Illustrator 25.0.1, SVG Export Plug-In . SVG Version: 6.00 Build 0)  -->
<svg version="1.1" id="Layer_1" xmlns="http://www.w3.org/2000/svg" xmlns:xlink="http://www.w3.org/1999/xlink" x="0px" y="0px"
	 viewBox="0 0 712.32 256.86" style="enable-background:new 0 0 712.32 256.86;" xml:space="preserve">
<style type="text/css">
	.st0{stroke:#000000;stroke-width:2;stroke-miterlimit:10;}
	.st1{fill:#7F67AC;}
	.st2{fill:#E9E6EE;}
	.st3{fill:none;stroke:#9A64F6;stroke-width:12.2218;stroke-linecap:round;stroke-miterlimit:10;}
	.st4{fill:none;stroke:#9A64F6;stroke-width:6.1109;stroke-linecap:round;stroke-miterlimit:10;}
	.st5{fill:none;stroke:#000000;stroke-width:4.0739;stroke-linecap:round;stroke-linejoin:round;stroke-miterlimit:10;}
	.st6{stroke:#000000;stroke-width:2.037;stroke-miterlimit:10;}
</style>
<g>
	<path class="st0" d="M352.91,121.54c0-24.05,17.56-41.61,41.38-41.61c23.94,0,41.38,17.67,41.38,41.61
		c0,23.94-17.44,41.61-41.38,41.61C370.46,163.15,352.91,145.6,352.91,121.54z M419.14,121.54c0-14.36-10.26-26.11-24.85-26.11
		s-24.85,11.74-24.85,26.11c0,14.36,10.26,26.11,24.85,26.11S419.14,135.91,419.14,121.54z"/>
	<path class="st0" d="M448.66,127.47V88.6c0-4.56,3.76-8.32,8.32-8.32c4.56,0,8.21,3.76,8.21,8.32v39.33
		c0,13.45,6.84,20.18,17.33,20.18s17.33-6.61,17.33-20.18V88.6c0-4.56,3.76-8.32,8.32-8.32c4.56,0,8.21,3.76,8.21,8.32v38.87
		c0,23.03-13.11,35.68-33.86,35.68S448.66,150.5,448.66,127.47z"/>
	<path class="st0" d="M530.63,147.31c-0.8-1.6-1.14-3.08-1.14-4.45c0-4.9,4.33-8.21,8.66-8.21c3.08,0,6.04,1.6,7.41,5.59
		c2.28,6.5,7.3,8.89,12.88,8.89c6.95,0,11.06-3.53,11.06-8.44c0-14.48-38.76-11.51-38.76-37.96c0-13.34,10.72-22.8,26.45-22.8
		c11.74,0,21.89,5.36,26.33,15.16c0.68,1.48,0.91,2.85,0.91,4.22c0,4.79-3.99,8.09-8.09,8.09c-2.96,0-6.04-1.71-7.87-5.93
		c-1.94-4.56-5.93-7.52-11.06-7.52c-5.47,0-9.69,3.08-9.69,8.09c0,16.3,39.22,10.72,39.22,37.62c0,14.71-12.43,23.48-28.61,23.48
		C544.2,163.15,534.96,156.43,530.63,147.31z"/>
	<path class="st0" d="M609.63,162.01c-5.59,0-8.66-3.08-8.66-8.66V89.74c0-5.59,3.08-8.66,8.66-8.66h36.82
		c3.99,0,7.41,3.31,7.41,7.52c0,4.1-3.42,7.41-7.41,7.41H617.5v17.9h22.8c3.99,0,7.3,3.31,7.3,7.3s-3.31,7.3-7.3,7.3h-22.8v18.58
		h28.96c3.99,0,7.41,3.31,7.41,7.41c0,4.22-3.42,7.52-7.41,7.52H609.63z"/>
</g>
<path class="st1" d="M119.82,81.02"/>
<path class="st1" d="M103.85,95.35"/>
<g>
	<g>
		<g>
			<path class="st2" d="M165.56,132.76c0,0,9.74,11.7,11.21,27.02c1.46,15.32-9.39,24.12-9.39,24.12
				c-10.46-2.22-18.85-9.67-21.5-19.31c-3.4-12.37,3.18-26.46,16.22-32.66"/>
			<path class="st2" d="M122.54,144.71c14.98,14.3,4.13,22.94,2.38,24.43c-1.75,1.49-13.18,6.24-22.11-6.46s-0.92-21.06-0.92-21.06
				s-15.55-29.31-1.93-40.79l0.62-0.48c14.13-10.84,39.43,10.64,39.43,10.64s9.88-6.03,20.37,5.42c1.27,1.39,6.37,6.29,5.6,13.2
				c-0.69,6.15-6.12,11.46-13.46,13.14"/>
			<path class="st2" d="M167.23,184c0,0-10.92,8.71-25.57,3.99c-14.65-4.71-23.98-16.74-23.98-16.74c4.23-2.24,9.34-5.79,9.64-10.51
				c0.42-6.77-9.49-9.27-9.93-16.72c-0.48-8.07,10.33-19.33,19.86-16.85c5.04,1.31,4.56,8.44,9.93,10.32
				c4.96,1.74,10.83-2.13,14.92-5.56"/>
		</g>
	</g>
	<path class="st3" d="M74.37,155.21c-18.74-9.3-32.83-28.41-33.72-54.08c-0.52-14.85,4.96-29.2,15.24-39.92
		C88.41,27.3,139.2,39.16,156.03,76.82c1.69,3.79,2.96,7.66,3.83,11.56"/>
	<path class="st4" d="M79.48,131.37c-4.65-3.65-8.48-8.48-11-14.29c-8.1-18.66,0.47-40.36,19.14-48.45
		c18.66-8.1,40.36,0.47,48.45,19.14"/>
	<g>
		<path class="st5" d="M212.55,141.48c-5.17-3.1-9.24-1.56-10.33,3.37c-1.1,4.93,4.73,31.09-9.51,38.43
			c-14.24,7.34-25.4,0.31-25.4,0.31s10.85-8.8,9.39-24.12s-11.21-27.02-11.21-27.02"/>
		<g>
			
				<ellipse transform="matrix(0.5462 -0.8377 0.8377 0.5462 -42.2795 154.8403)" class="st6" cx="121.77" cy="116.44" rx="3.16" ry="4.73"/>
			
				<ellipse transform="matrix(0.8991 -0.4377 0.4377 0.8991 -43.1897 61.398)" class="st6" cx="111.6" cy="124.39" rx="3.16" ry="4.73"/>
			<path class="st5" d="M122.48,144.41c14.98,14.3,4.13,22.94,2.38,24.43c-1.75,1.49-13.18,6.24-22.11-6.46s-0.92-21.06-0.92-21.06
				s-15.55-29.31-1.93-40.79l0.62-0.48c14.13-10.84,39.43,10.64,39.43,10.64s9.88-6.03,20.37,5.42c10.49,11.44,3.4,21.59,1.57,22.98
				c-1.83,1.39-12.6,10.13-23.35-7.56"/>
			<path class="st5" d="M167.16,183.69c0,0-10.92,8.71-25.57,3.99s-23.98-16.74-23.98-16.74"/>
			<path d="M116.76,95.91c2.81-3.64,5.13-5.58,9.22-7.35c0.42-0.18,0.92-0.05,1.19,0.33c0.37,0.52,0.64,1.24-0.24,1.66
				c-3.09,1.44-5.63,3.23-7.67,6.07"/>
			<path d="M110.53,94.94c2.1-4.72,4.99-8.48,8.38-12.34c0.92-1.05,0.38-0.45,1-1.19l0.82-0.89c0.6-0.73,1.71-0.24,1.69,0.7
				c-0.01,0.75-0.01,0.54-1.15,1.9c-3.27,3.94-6.43,7.16-8.47,11.99"/>
			<path d="M92.32,114.03c-4.25,1.76-6.73,3.5-9.49,6.99c-0.28,0.36-0.28,0.88,0.01,1.23c0.4,0.49,1.03,0.95,1.66,0.2
				c2.2-2.61,4.59-4.6,7.85-5.83"/>
			<path d="M93.37,107.78c-5.1,0.8-9.84,2.6-14.46,4.87c-1.26,0.62-0.53,0.25-1.41,0.66l-1.07,0.56c-0.86,0.39-0.68,1.59,0.24,1.82
				c0.73,0.18,0.52,0.13,2.13-0.61c4.65-2.13,8.9-4.31,14.09-5.02"/>
		</g>
	</g>
</g>
<path d="M243.56,63.91c5.51,0.15,11.69,2.38,16.06,5.76c3.89,2.99,6.11,6.88,8.78,10.88c3.99-4.66,7.42-9.13,12.93-12.14
	c7.92-4.4,16.45-4.8,25.3-4.13c9.08,1.03,17.71,4.59,23.75,11.65c6.27,7.21,8.59,17.51,9.54,26.77c0.58,16.68,0.31,33.27,0.39,50.01
	c0.67,5.1-4.04,9.88-8.61,11.28c-7.12,2.18-15.05-3.82-14.83-11.24c-0.03-9.01,0.02-18.03-0.01-27.04
	c-0.06-9.05,0.82-17.79-1.06-26.74c-0.98-3.95-2.87-7.73-6.24-10.16c-8.41-5.86-21.3-3.79-26.87,5.02
	c-2.95,5.03-4.51,11.06-4.45,16.88c-0.07,14.33,0.01,28.69-0.01,43.02c0.13,6.31-6.58,11.36-12.61,10.63
	c-5.77-0.56-10.6-5.85-10.59-11.64c-0.12-13.67,0.05-27.34-0.09-41.01c0.04-5.76-1.09-11.59-3.4-16.87
	c-2.72-6.12-9.26-10.02-15.92-9.81c-8.67,0.05-16.87,6.01-19.03,14.51c-1.86,7.65-1.36,16.36-1.2,24.17
	c-0.04,9.68-0.01,19.35,0.02,29.03c0.62,6.25-5.86,11.79-11.81,11.7c-5.31,0.03-11.89-4.92-11.02-10.72
	c0.09-29.52-0.06-59.04,0.07-88.56c2.31,2.96,4.34,5.83,7.31,8.19c6.03,4.94,14.43,7.19,22.06,5.32
	c6.13-1.38,11.69-5.02,15.41-10.08C239.25,66.4,240.27,63.88,243.56,63.91L243.56,63.91z"/>
<g>
	<path d="M264.29,209.34v-23.68h9.47c4.35,0,8.45,1.06,8.45,5.86c0,3.36-2.11,4.96-4.51,5.44v0.06c2.88,0.51,5.15,2.02,5.15,5.79
		c0,4.77-4.19,6.53-8.61,6.53H264.29z M269.41,195.42h3.84c2.72,0,3.97-1.02,3.97-2.85c0-1.86-1.12-2.88-3.9-2.88h-3.9V195.42z
		 M269.41,205.37h4.19c2.88,0,4.16-1.15,4.16-3.17c0-2.08-1.5-3.1-4.38-3.1h-3.97V205.37z"/>
	<path d="M344.8,209.34v-10.05l-8.16-13.63h5.38l5.41,9.22l5.44-9.22h5.31l-8.19,13.63v10.05H344.8z"/>
	<path d="M419,209.34v-19.33h-7.04v-4.35h19.33v4.35h-7.07v19.33H419z"/>
	<path d="M487.23,209.34v-23.68h16.13v4.35h-10.91v5.09h7.9v4.13h-7.9v5.89h11.49v4.22H487.23z"/>
	<path d="M558.59,203.96l3.94-2.34c1.31,2.59,3.68,4.03,6.4,4.03c2.4,0,4.13-0.9,4.13-2.72c0-1.79-1.7-2.56-4.8-3.42
		c-4.22-1.18-8.64-2.27-8.64-7.23c0-4.42,3.46-7.07,8.54-7.07c4.86,0,7.74,2.34,9.41,4.86l-3.62,2.75
		c-1.25-2.02-3.52-3.36-5.82-3.36c-2.21,0-3.42,0.96-3.42,2.37c0,1.89,1.76,2.56,4.86,3.42c4.16,1.12,8.58,2.43,8.58,7.33
		c0,3.81-2.88,7.2-9.47,7.2C563.55,209.78,560.35,207.35,558.59,203.96z"/>
</g>
</svg>
